<?xml version="1.0" encoding="UTF-8"?>
<svg width="1200" height="360" viewBox="0 0 1200 360" xmlns="http://www.w3.org/2000/svg" role="img" aria-label="NODE • Eye of Kai • FlameOS — Trinity Seal">
  <title>NODE • Eye of Kai • FlameOS — Trinity Seal</title>

  <!-- ==== THEME (edit here) ==== -->
  <defs>
    <linearGradient id="g-flame" x1="0" y1="0" x2="1" y2="1">
      <stop offset="0%" stop-color="#FF6A00"/>
      <stop offset="100%" stop-color="#FFB36A"/>
    </linearGradient>
    <linearGradient id="g-cyan" x1="0" y1="0" x2="1" y2="1">
      <stop offset="0%" stop-color="#80E9FF"/>
      <stop offset="100%" stop-color="#00C2FF"/>
    </linearGradient>
    <linearGradient id="g-silver" x1="0" y1="0" x2="1" y2="1">
      <stop offset="0%" stop-color="#C0C6D9"/>
      <stop offset="100%" stop-color="#E4E8F2"/>
    </linearGradient>

    <style>
      :root {
        --bg: #0B0E13;        /* Charcoal */
        --ink: #E6E9F2;       /* Light ink */
        --muted: #8892A6;     /* Muted text */
        --flame: url(#g-flame);
        --cyan: url(#g-cyan);
        --silver: url(#g-silver);
      }
      .txt-hero { font: 700 36px/1.2 ui-sans-serif, system-ui, -apple-system, Segoe UI, Roboto, Inter, "Helvetica Neue", Arial; fill: var(--ink); letter-spacing: .2px }
      .txt-sub  { font: 500 18px/1.5 ui-sans-serif, system-ui, -apple-system, Segoe UI, Roboto, Inter, "Helvetica Neue", Arial; fill: var(--muted) }
      .pill     { font: 700 12px ui-sans-serif, system-ui, Inter; fill: #0B0E13 }
      .soft     { opacity: .08 }
      .ring     { fill: none; stroke-width: 2.5 }
      .icon     { fill: none; stroke-linecap: round; stroke-linejoin: round; stroke-width: 2.5 }
    </style>

    <!-- Soft noise texture -->
    <filter id="grain">
      <feTurbulence type="fractalNoise" baseFrequency="0.8" numOctaves="2" stitchTiles="stitch"/>
      <feColorMatrix values="0 0 0 0 0  0 0 0 0 0  0 0 0 0 0  0 0 0 .05 0"/>
      <feBlend mode="multiply"/>
    </filter>
  </defs>

  <!-- ==== BACKGROUND ==== -->
  <rect width="1200" height="360" fill="var(--bg)"/>
  <g filter="url(#grain)">
    <rect width="1200" height="360" fill="transparent"/>
  </g>

  <!-- Glow beams -->
  <g opacity=".25">
    <rect x="-50" y="-20" width="800" height="200" rx="24" transform="rotate(12 0 0)" fill="url(#g-flame)"/>
    <rect x="500" y="200" width="800" height="200" rx="24" transform="rotate(-8 0 0)" fill="url(#g-cyan)"/>
  </g>

  <!-- Giant NODE watermark -->
  <g class="soft">
    <circle cx="980" cy="40" r="220" fill="none" stroke="#FFFFFF" opacity=".08" stroke-width="2"/>
    <circle cx="980" cy="40" r="180" fill="none" stroke="#FFFFFF" opacity=".06" stroke-width="2"/>
    <rect x="800" y="-140" width="360" height="360" rx="24" fill="none" stroke="#FFFFFF" opacity=".045" stroke-width="2"/>
    <rect x="860" y="-80" width="240" height="240" rx="16" fill="none" stroke="#FFFFFF" opacity=".05" stroke-width="2"/>
    <rect x="920" y="-20" width="120" height="120" rx="10" fill="none" stroke="#FFFFFF" opacity=".06" stroke-width="2"/>
  </g>

  <!-- ==== LEFT: Title & subtitle ==== -->
  <g transform="translate(64,90)">
    <text class="txt-hero">GodsIMiJ Empire · Trinity Seal</text>
    <text class="txt-sub" y="34">NODE • Eye of Kai • FlameOS</text>

    <!-- Pills -->
    <g transform="translate(0,74)">
      <rect x="0" y="0" rx="20" ry="20" width="168" height="32" fill="url(#g-flame)"/>
      <text class="pill" x="16" y="21">Sovereign · Offline-First</text>

      <rect x="184" y="0" rx="20" ry="20" width="138" height="32" fill="url(#g-cyan)"/>
      <text class="pill" x="200" y="21">NODE-Sealed</text>

      <rect x="336" y="0" rx="20" ry="20" width="162" height="32" fill="url(#g-silver)"/>
      <text class="pill" x="352" y="21">Right Hand Compliant</text>
    </g>

    <!-- Footer -->
    <text class="txt-sub" y="140">github.com/GodsIMiJ1 · quantum-odyssey.com</text>
  </g>

  <!-- ==== RIGHT: Three glyphs (swap with your real paths anytime) ==== -->
  <g transform="translate(820,110)">

    <!-- NODE -->
    <g transform="translate(0,0)">
      <circle class="ring" cx="0" cy="0" r="44" stroke="url(#g-silver)"/>
      <rect class="icon" x="-28" y="-28" width="56" height="56" rx="10" stroke="url(#g-silver)"/>
      <rect class="icon" x="-14" y="-14" width="28" height="28" rx="6" stroke="url(#g-silver)"/>
    </g>

    <!-- Eye of Kai -->
    <g transform="translate(120,0)">
      <path class="icon" d="M-46 0 C-24 -28, 24 -28, 46 0 C24 28, -24 28, -46 0 Z" stroke="url(#g-cyan)"/>
      <circle class="ring" cx="0" cy="0" r="14" stroke="url(#g-cyan)"/>
      <circle cx="0" cy="0" r="6" fill="url(#g-cyan)"/>
    </g>

    <!-- FlameOS -->
    <g transform="translate(240,0)">
      <path class="icon" d="M0 -40 C18 -12, 10 0, 10 8 C10 24, -10 28, -10 8 C-10 0, -2 -12, 0 -40 Z" stroke="url(#g-flame)"/>
      <path class="icon" d="M-8 24 C-2 34, 2 34, 8 24" stroke="url(#g-flame)"/>
    </g>
  </g>
</svg>
